<svg id="visual" viewBox="0 0 960 540" width="960" height="540" xmlns="http://www.w3.org/2000/svg" xmlns:xlink="http://www.w3.org/1999/xlink" version="1.1"><g stroke-width="1" stroke-linejoin="bevel"><path d="M468 296L437 307L456 323Z" fill="#cfc409" stroke="#cfc409"></path><path d="M437 307L430 315L456 323Z" fill="#385e0f" stroke="#385e0f"></path><path d="M455 403L484 337L456 323Z" fill="#95a20c" stroke="#95a20c"></path><path d="M456 323L484 337L468 296Z" fill="#4d6f10" stroke="#4d6f10"></path><path d="M468 296L445 260L437 307Z" fill="#4d6f10" stroke="#4d6f10"></path><path d="M437 307L422 269L430 315Z" fill="#efd40c" stroke="#efd40c"></path><path d="M484 337L494 332L468 296Z" fill="#385e0f" stroke="#385e0f"></path><path d="M468 296L512 233L445 260Z" fill="#cfc409" stroke="#cfc409"></path><path d="M445 260L422 269L437 307Z" fill="#7b910f" stroke="#7b910f"></path><path d="M484 337L524 347L494 332Z" fill="#072c03" stroke="#072c03"></path><path d="M494 332L533 269L468 296Z" fill="#264d0d" stroke="#264d0d"></path><path d="M524 347L536 322L494 332Z" fill="#638010" stroke="#638010"></path><path d="M422 269L368 313L430 315Z" fill="#153c0a" stroke="#153c0a"></path><path d="M430 315L394 380L456 323Z" fill="#4d6f10" stroke="#4d6f10"></path><path d="M484 337L532 388L524 347Z" fill="#efd40c" stroke="#efd40c"></path><path d="M536 322L533 269L494 332Z" fill="#efd40c" stroke="#efd40c"></path><path d="M368 313L376 347L430 315Z" fill="#072c03" stroke="#072c03"></path><path d="M524 347L538 335L536 322Z" fill="#95a20c" stroke="#95a20c"></path><path d="M536 322L558 309L533 269Z" fill="#7b910f" stroke="#7b910f"></path><path d="M533 269L512 233L468 296Z" fill="#4d6f10" stroke="#4d6f10"></path><path d="M445 260L426 209L422 269Z" fill="#b1b30a" stroke="#b1b30a"></path><path d="M376 347L394 380L430 315Z" fill="#153c0a" stroke="#153c0a"></path><path d="M394 380L455 403L456 323Z" fill="#efd40c" stroke="#efd40c"></path><path d="M512 233L426 209L445 260Z" fill="#cfc409" stroke="#cfc409"></path><path d="M422 269L369 236L368 313Z" fill="#95a20c" stroke="#95a20c"></path><path d="M538 335L558 309L536 322Z" fill="#153c0a" stroke="#153c0a"></path><path d="M583 182L564 165L512 233Z" fill="#efd40c" stroke="#efd40c"></path><path d="M426 209L369 236L422 269Z" fill="#95a20c" stroke="#95a20c"></path><path d="M455 403L532 388L484 337Z" fill="#7b910f" stroke="#7b910f"></path><path d="M524 347L558 384L538 335Z" fill="#4d6f10" stroke="#4d6f10"></path><path d="M538 335L607 374L558 309Z" fill="#95a20c" stroke="#95a20c"></path><path d="M330 408L394 404L394 380Z" fill="#4d6f10" stroke="#4d6f10"></path><path d="M394 380L394 404L455 403Z" fill="#264d0d" stroke="#264d0d"></path><path d="M459 174L428 191L426 209Z" fill="#efd40c" stroke="#efd40c"></path><path d="M426 209L410 178L369 236Z" fill="#264d0d" stroke="#264d0d"></path><path d="M394 404L421 427L455 403Z" fill="#4d6f10" stroke="#4d6f10"></path><path d="M455 403L471 476L532 388Z" fill="#264d0d" stroke="#264d0d"></path><path d="M369 236L329 283L368 313Z" fill="#b1b30a" stroke="#b1b30a"></path><path d="M368 313L330 371L376 347Z" fill="#638010" stroke="#638010"></path><path d="M376 347L330 371L394 380Z" fill="#264d0d" stroke="#264d0d"></path><path d="M547 471L558 384L532 388Z" fill="#385e0f" stroke="#385e0f"></path><path d="M532 388L558 384L524 347Z" fill="#4d6f10" stroke="#4d6f10"></path><path d="M512 233L459 174L426 209Z" fill="#264d0d" stroke="#264d0d"></path><path d="M459 174L410 178L428 191Z" fill="#385e0f" stroke="#385e0f"></path><path d="M428 191L410 178L426 209Z" fill="#264d0d" stroke="#264d0d"></path><path d="M369 236L326 209L329 283Z" fill="#95a20c" stroke="#95a20c"></path><path d="M623 344L589 292L558 309Z" fill="#153c0a" stroke="#153c0a"></path><path d="M558 309L589 292L533 269Z" fill="#638010" stroke="#638010"></path><path d="M512 233L483 170L459 174Z" fill="#4d6f10" stroke="#4d6f10"></path><path d="M564 165L483 170L512 233Z" fill="#638010" stroke="#638010"></path><path d="M459 174L398 152L410 178Z" fill="#7b910f" stroke="#7b910f"></path><path d="M329 283L330 371L368 313Z" fill="#4d6f10" stroke="#4d6f10"></path><path d="M394 404L361 432L421 427Z" fill="#7b910f" stroke="#7b910f"></path><path d="M262 313L327 373L330 371Z" fill="#b1b30a" stroke="#b1b30a"></path><path d="M330 408L361 432L394 404Z" fill="#072c03" stroke="#072c03"></path><path d="M623 344L606 275L589 292Z" fill="#cfc409" stroke="#cfc409"></path><path d="M589 292L606 275L533 269Z" fill="#153c0a" stroke="#153c0a"></path><path d="M330 408L394 380L330 371Z" fill="#385e0f" stroke="#385e0f"></path><path d="M327 373L330 408L330 371Z" fill="#264d0d" stroke="#264d0d"></path><path d="M368 155L326 209L369 236Z" fill="#95a20c" stroke="#95a20c"></path><path d="M329 283L262 313L330 371Z" fill="#638010" stroke="#638010"></path><path d="M438 107L398 152L459 174Z" fill="#cfc409" stroke="#cfc409"></path><path d="M410 178L368 155L369 236Z" fill="#cfc409" stroke="#cfc409"></path><path d="M599 435L607 374L558 384Z" fill="#638010" stroke="#638010"></path><path d="M558 384L607 374L538 335Z" fill="#95a20c" stroke="#95a20c"></path><path d="M443 481L471 476L421 427Z" fill="#638010" stroke="#638010"></path><path d="M421 427L471 476L455 403Z" fill="#4d6f10" stroke="#4d6f10"></path><path d="M607 374L623 344L558 309Z" fill="#638010" stroke="#638010"></path><path d="M398 152L368 155L410 178Z" fill="#cfc409" stroke="#cfc409"></path><path d="M391 470L443 481L421 427Z" fill="#072c03" stroke="#072c03"></path><path d="M361 432L391 470L421 427Z" fill="#264d0d" stroke="#264d0d"></path><path d="M397 508L391 470L337 495Z" fill="#cfc409" stroke="#cfc409"></path><path d="M583 182L512 233L533 269Z" fill="#072c03" stroke="#072c03"></path><path d="M392 116L367 134L398 152Z" fill="#638010" stroke="#638010"></path><path d="M596 190L583 182L533 269Z" fill="#4d6f10" stroke="#4d6f10"></path><path d="M606 275L596 190L533 269Z" fill="#264d0d" stroke="#264d0d"></path><path d="M608 104L545 134L564 165Z" fill="#7b910f" stroke="#7b910f"></path><path d="M625 229L596 190L606 275Z" fill="#95a20c" stroke="#95a20c"></path><path d="M667 305L625 229L606 275Z" fill="#638010" stroke="#638010"></path><path d="M515 523L547 471L471 476Z" fill="#efd40c" stroke="#efd40c"></path><path d="M471 476L547 471L532 388Z" fill="#b1b30a" stroke="#b1b30a"></path><path d="M251 288L262 313L329 283Z" fill="#638010" stroke="#638010"></path><path d="M327 373L250 419L330 408Z" fill="#638010" stroke="#638010"></path><path d="M398 152L367 134L368 155Z" fill="#b1b30a" stroke="#b1b30a"></path><path d="M368 155L303 155L326 209Z" fill="#efd40c" stroke="#efd40c"></path><path d="M326 209L251 288L329 283Z" fill="#4d6f10" stroke="#4d6f10"></path><path d="M438 107L459 174L483 170Z" fill="#385e0f" stroke="#385e0f"></path><path d="M547 471L599 435L558 384Z" fill="#264d0d" stroke="#264d0d"></path><path d="M607 374L647 385L623 344Z" fill="#efd40c" stroke="#efd40c"></path><path d="M608 104L564 165L583 182Z" fill="#153c0a" stroke="#153c0a"></path><path d="M564 165L545 134L483 170Z" fill="#072c03" stroke="#072c03"></path><path d="M490 96L438 107L483 170Z" fill="#95a20c" stroke="#95a20c"></path><path d="M438 107L392 116L398 152Z" fill="#264d0d" stroke="#264d0d"></path><path d="M263 179L251 288L326 209Z" fill="#153c0a" stroke="#153c0a"></path><path d="M650 418L647 385L607 374Z" fill="#264d0d" stroke="#264d0d"></path><path d="M623 344L667 305L606 275Z" fill="#153c0a" stroke="#153c0a"></path><path d="M391 470L397 508L443 481Z" fill="#efd40c" stroke="#efd40c"></path><path d="M488 540L515 523L471 476Z" fill="#072c03" stroke="#072c03"></path><path d="M337 495L391 470L361 432Z" fill="#638010" stroke="#638010"></path><path d="M337 495L361 432L330 408Z" fill="#b1b30a" stroke="#b1b30a"></path><path d="M251 288L244 313L262 313Z" fill="#638010" stroke="#638010"></path><path d="M262 313L250 419L327 373Z" fill="#072c03" stroke="#072c03"></path><path d="M647 385L667 305L623 344Z" fill="#638010" stroke="#638010"></path><path d="M545 134L490 96L483 170Z" fill="#7b910f" stroke="#7b910f"></path><path d="M438 107L425 90L392 116Z" fill="#638010" stroke="#638010"></path><path d="M293 147L303 155L299 131Z" fill="#7b910f" stroke="#7b910f"></path><path d="M367 134L303 155L368 155Z" fill="#95a20c" stroke="#95a20c"></path><path d="M532 70L533 103L582 72Z" fill="#cfc409" stroke="#cfc409"></path><path d="M545 134L533 103L490 96Z" fill="#072c03" stroke="#072c03"></path><path d="M608 104L583 182L596 190Z" fill="#b1b30a" stroke="#b1b30a"></path><path d="M488 58L425 90L438 107Z" fill="#072c03" stroke="#072c03"></path><path d="M299 131L303 155L367 134Z" fill="#95a20c" stroke="#95a20c"></path><path d="M533 103L523 96L490 96Z" fill="#264d0d" stroke="#264d0d"></path><path d="M484 51L417 66L425 90Z" fill="#efd40c" stroke="#efd40c"></path><path d="M259 440L337 495L330 408Z" fill="#efd40c" stroke="#efd40c"></path><path d="M517 529L515 523L497 540Z" fill="#efd40c" stroke="#efd40c"></path><path d="M610 483L619 474L599 435Z" fill="#cfc409" stroke="#cfc409"></path><path d="M599 435L650 418L607 374Z" fill="#153c0a" stroke="#153c0a"></path><path d="M619 474L650 418L599 435Z" fill="#638010" stroke="#638010"></path><path d="M647 385L687 299L667 305Z" fill="#95a20c" stroke="#95a20c"></path><path d="M299 131L367 134L292 81Z" fill="#7b910f" stroke="#7b910f"></path><path d="M303 155L263 179L326 209Z" fill="#264d0d" stroke="#264d0d"></path><path d="M293 147L263 179L303 155Z" fill="#638010" stroke="#638010"></path><path d="M251 288L218 314L244 313Z" fill="#95a20c" stroke="#95a20c"></path><path d="M488 540L471 476L443 481Z" fill="#cfc409" stroke="#cfc409"></path><path d="M515 523L569 540L547 471Z" fill="#7b910f" stroke="#7b910f"></path><path d="M736 285L687 299L745 376Z" fill="#385e0f" stroke="#385e0f"></path><path d="M667 305L693 220L625 229Z" fill="#638010" stroke="#638010"></path><path d="M625 229L667 207L596 190Z" fill="#264d0d" stroke="#264d0d"></path><path d="M202 381L250 419L262 313Z" fill="#b1b30a" stroke="#b1b30a"></path><path d="M292 81L367 134L343 33Z" fill="#153c0a" stroke="#153c0a"></path><path d="M293 147L246 135L263 179Z" fill="#385e0f" stroke="#385e0f"></path><path d="M693 220L667 207L625 229Z" fill="#4d6f10" stroke="#4d6f10"></path><path d="M610 483L599 435L547 471Z" fill="#4d6f10" stroke="#4d6f10"></path><path d="M605 515L610 483L547 471Z" fill="#153c0a" stroke="#153c0a"></path><path d="M202 247L218 314L251 288Z" fill="#7b910f" stroke="#7b910f"></path><path d="M244 313L202 381L262 313Z" fill="#7b910f" stroke="#7b910f"></path><path d="M419 540L443 481L397 508Z" fill="#4d6f10" stroke="#4d6f10"></path><path d="M419 540L488 540L443 481Z" fill="#4d6f10" stroke="#4d6f10"></path><path d="M380 540L419 540L397 508Z" fill="#cfc409" stroke="#cfc409"></path><path d="M250 419L259 440L330 408Z" fill="#7b910f" stroke="#7b910f"></path><path d="M488 540L497 540L515 523Z" fill="#153c0a" stroke="#153c0a"></path><path d="M569 540L605 515L547 471Z" fill="#cfc409" stroke="#cfc409"></path><path d="M295 540L333 515L337 495Z" fill="#efd40c" stroke="#efd40c"></path><path d="M337 495L362 540L397 508Z" fill="#cfc409" stroke="#cfc409"></path><path d="M488 58L438 107L490 96Z" fill="#264d0d" stroke="#264d0d"></path><path d="M425 90L417 66L392 116Z" fill="#264d0d" stroke="#264d0d"></path><path d="M362 540L380 540L397 508Z" fill="#638010" stroke="#638010"></path><path d="M533 103L532 70L523 96Z" fill="#efd40c" stroke="#efd40c"></path><path d="M523 96L488 58L490 96Z" fill="#638010" stroke="#638010"></path><path d="M582 72L533 103L545 134Z" fill="#153c0a" stroke="#153c0a"></path><path d="M532 70L488 58L523 96Z" fill="#b1b30a" stroke="#b1b30a"></path><path d="M333 515L362 540L337 495Z" fill="#95a20c" stroke="#95a20c"></path><path d="M687 299L693 220L667 305Z" fill="#4d6f10" stroke="#4d6f10"></path><path d="M688 172L608 104L596 190Z" fill="#153c0a" stroke="#153c0a"></path><path d="M688 172L596 190L667 207Z" fill="#cfc409" stroke="#cfc409"></path><path d="M532 70L484 51L488 58Z" fill="#385e0f" stroke="#385e0f"></path><path d="M488 58L484 51L425 90Z" fill="#4d6f10" stroke="#4d6f10"></path><path d="M569 540L515 523L517 529Z" fill="#4d6f10" stroke="#4d6f10"></path><path d="M610 483L605 515L619 474Z" fill="#95a20c" stroke="#95a20c"></path><path d="M619 474L704 446L650 418Z" fill="#264d0d" stroke="#264d0d"></path><path d="M159 313L199 348L218 314Z" fill="#cfc409" stroke="#cfc409"></path><path d="M218 314L199 348L244 313Z" fill="#072c03" stroke="#072c03"></path><path d="M212 463L242 474L259 440Z" fill="#95a20c" stroke="#95a20c"></path><path d="M203 188L202 247L263 179Z" fill="#264d0d" stroke="#264d0d"></path><path d="M263 179L202 247L251 288Z" fill="#7b910f" stroke="#7b910f"></path><path d="M723 258L699 222L693 220Z" fill="#072c03" stroke="#072c03"></path><path d="M693 220L688 172L667 207Z" fill="#264d0d" stroke="#264d0d"></path><path d="M497 540L569 540L517 529Z" fill="#638010" stroke="#638010"></path><path d="M199 348L199 363L244 313Z" fill="#7b910f" stroke="#7b910f"></path><path d="M199 363L202 381L244 313Z" fill="#264d0d" stroke="#264d0d"></path><path d="M608 104L582 72L545 134Z" fill="#cfc409" stroke="#cfc409"></path><path d="M476 0L454 0L484 51Z" fill="#cfc409" stroke="#cfc409"></path><path d="M265 95L259 122L299 131Z" fill="#264d0d" stroke="#264d0d"></path><path d="M299 131L259 122L293 147Z" fill="#7b910f" stroke="#7b910f"></path><path d="M259 122L246 135L293 147Z" fill="#385e0f" stroke="#385e0f"></path><path d="M699 222L688 172L693 220Z" fill="#072c03" stroke="#072c03"></path><path d="M608 104L641 89L582 72Z" fill="#cfc409" stroke="#cfc409"></path><path d="M212 463L259 440L250 419Z" fill="#153c0a" stroke="#153c0a"></path><path d="M259 440L242 474L337 495Z" fill="#264d0d" stroke="#264d0d"></path><path d="M333 515L295 540L362 540Z" fill="#95a20c" stroke="#95a20c"></path><path d="M569 540L592 540L605 515Z" fill="#cfc409" stroke="#cfc409"></path><path d="M687 299L723 258L693 220Z" fill="#4d6f10" stroke="#4d6f10"></path><path d="M699 222L763 191L688 172Z" fill="#153c0a" stroke="#153c0a"></path><path d="M736 285L723 258L687 299Z" fill="#95a20c" stroke="#95a20c"></path><path d="M170 235L180 283L202 247Z" fill="#4d6f10" stroke="#4d6f10"></path><path d="M202 247L180 283L218 314Z" fill="#7b910f" stroke="#7b910f"></path><path d="M199 348L128 326L199 363Z" fill="#efd40c" stroke="#efd40c"></path><path d="M167 425L198 435L202 381Z" fill="#638010" stroke="#638010"></path><path d="M343 33L367 134L392 116Z" fill="#385e0f" stroke="#385e0f"></path><path d="M259 122L239 80L246 135Z" fill="#153c0a" stroke="#153c0a"></path><path d="M343 33L392 116L417 66Z" fill="#4d6f10" stroke="#4d6f10"></path><path d="M246 135L203 188L263 179Z" fill="#efd40c" stroke="#efd40c"></path><path d="M741 384L647 385L650 418Z" fill="#072c03" stroke="#072c03"></path><path d="M745 376L687 299L647 385Z" fill="#072c03" stroke="#072c03"></path><path d="M729 114L696 123L688 172Z" fill="#072c03" stroke="#072c03"></path><path d="M704 446L619 474L697 490Z" fill="#153c0a" stroke="#153c0a"></path><path d="M242 474L295 540L337 495Z" fill="#cfc409" stroke="#cfc409"></path><path d="M292 81L265 95L299 131Z" fill="#264d0d" stroke="#264d0d"></path><path d="M246 135L186 163L203 188Z" fill="#385e0f" stroke="#385e0f"></path><path d="M736 285L737 282L723 258Z" fill="#cfc409" stroke="#cfc409"></path><path d="M659 100L641 89L608 104Z" fill="#264d0d" stroke="#264d0d"></path><path d="M697 490L619 474L605 515Z" fill="#638010" stroke="#638010"></path><path d="M803 306L788 231L737 282Z" fill="#4d6f10" stroke="#4d6f10"></path><path d="M202 381L198 435L250 419Z" fill="#385e0f" stroke="#385e0f"></path><path d="M242 474L229 502L295 540Z" fill="#cfc409" stroke="#cfc409"></path><path d="M167 425L202 381L129 399Z" fill="#385e0f" stroke="#385e0f"></path><path d="M198 435L212 463L250 419Z" fill="#b1b30a" stroke="#b1b30a"></path><path d="M657 93L659 100L696 123Z" fill="#efd40c" stroke="#efd40c"></path><path d="M688 172L659 100L608 104Z" fill="#cfc409" stroke="#cfc409"></path><path d="M203 188L170 235L202 247Z" fill="#072c03" stroke="#072c03"></path><path d="M180 283L159 313L218 314Z" fill="#072c03" stroke="#072c03"></path><path d="M165 184L170 235L203 188Z" fill="#264d0d" stroke="#264d0d"></path><path d="M696 123L659 100L688 172Z" fill="#7b910f" stroke="#7b910f"></path><path d="M659 100L657 93L641 89Z" fill="#385e0f" stroke="#385e0f"></path><path d="M484 51L532 70L539 0Z" fill="#4d6f10" stroke="#4d6f10"></path><path d="M403 13L343 33L417 66Z" fill="#638010" stroke="#638010"></path><path d="M292 81L239 80L265 95Z" fill="#638010" stroke="#638010"></path><path d="M127 267L159 313L180 283Z" fill="#264d0d" stroke="#264d0d"></path><path d="M172 540L218 486L127 472Z" fill="#95a20c" stroke="#95a20c"></path><path d="M212 463L218 486L242 474Z" fill="#cfc409" stroke="#cfc409"></path><path d="M704 446L741 384L650 418Z" fill="#efd40c" stroke="#efd40c"></path><path d="M445 0L403 13L417 66Z" fill="#4d6f10" stroke="#4d6f10"></path><path d="M445 0L417 66L484 51Z" fill="#264d0d" stroke="#264d0d"></path><path d="M484 51L539 0L476 0Z" fill="#4d6f10" stroke="#4d6f10"></path><path d="M218 486L229 502L242 474Z" fill="#7b910f" stroke="#7b910f"></path><path d="M741 384L745 376L647 385Z" fill="#385e0f" stroke="#385e0f"></path><path d="M763 191L699 222L723 258Z" fill="#153c0a" stroke="#153c0a"></path><path d="M184 163L186 163L170 120Z" fill="#efd40c" stroke="#efd40c"></path><path d="M694 537L697 490L605 515Z" fill="#4d6f10" stroke="#4d6f10"></path><path d="M771 473L784 391L741 384Z" fill="#b1b30a" stroke="#b1b30a"></path><path d="M741 384L784 391L745 376Z" fill="#efd40c" stroke="#efd40c"></path><path d="M204 97L186 163L246 135Z" fill="#7b910f" stroke="#7b910f"></path><path d="M186 163L184 163L203 188Z" fill="#385e0f" stroke="#385e0f"></path><path d="M532 70L550 0L539 0Z" fill="#638010" stroke="#638010"></path><path d="M454 0L445 0L484 51Z" fill="#385e0f" stroke="#385e0f"></path><path d="M637 51L582 72L641 89Z" fill="#7b910f" stroke="#7b910f"></path><path d="M198 435L167 425L212 463Z" fill="#efd40c" stroke="#efd40c"></path><path d="M172 540L223 540L229 502Z" fill="#4d6f10" stroke="#4d6f10"></path><path d="M129 399L202 381L199 363Z" fill="#4d6f10" stroke="#4d6f10"></path><path d="M222 54L239 80L292 81Z" fill="#385e0f" stroke="#385e0f"></path><path d="M265 95L239 80L259 122Z" fill="#7b910f" stroke="#7b910f"></path><path d="M156 187L165 184L170 120Z" fill="#072c03" stroke="#072c03"></path><path d="M184 163L165 184L203 188Z" fill="#153c0a" stroke="#153c0a"></path><path d="M127 267L128 326L159 313Z" fill="#072c03" stroke="#072c03"></path><path d="M658 46L641 89L657 93Z" fill="#264d0d" stroke="#264d0d"></path><path d="M658 46L637 51L641 89Z" fill="#7b910f" stroke="#7b910f"></path><path d="M403 13L382 0L343 33Z" fill="#efd40c" stroke="#efd40c"></path><path d="M343 33L328 0L292 81Z" fill="#7b910f" stroke="#7b910f"></path><path d="M445 0L382 0L403 13Z" fill="#385e0f" stroke="#385e0f"></path><path d="M697 490L720 476L704 446Z" fill="#153c0a" stroke="#153c0a"></path><path d="M550 0L532 70L582 72Z" fill="#efd40c" stroke="#efd40c"></path><path d="M620 0L550 0L582 72Z" fill="#cfc409" stroke="#cfc409"></path><path d="M170 120L165 184L184 163Z" fill="#072c03" stroke="#072c03"></path><path d="M165 184L156 187L170 235Z" fill="#efd40c" stroke="#efd40c"></path><path d="M239 80L204 97L246 135Z" fill="#264d0d" stroke="#264d0d"></path><path d="M222 54L204 97L239 80Z" fill="#7b910f" stroke="#7b910f"></path><path d="M127 267L180 283L170 235Z" fill="#153c0a" stroke="#153c0a"></path><path d="M159 313L128 326L199 348Z" fill="#b1b30a" stroke="#b1b30a"></path><path d="M229 502L223 540L295 540Z" fill="#072c03" stroke="#072c03"></path><path d="M172 540L229 502L218 486Z" fill="#cfc409" stroke="#cfc409"></path><path d="M103 219L127 267L170 235Z" fill="#95a20c" stroke="#95a20c"></path><path d="M788 231L723 258L737 282Z" fill="#b1b30a" stroke="#b1b30a"></path><path d="M788 231L763 191L723 258Z" fill="#072c03" stroke="#072c03"></path><path d="M740 57L658 46L657 93Z" fill="#385e0f" stroke="#385e0f"></path><path d="M740 57L657 93L696 123Z" fill="#7b910f" stroke="#7b910f"></path><path d="M637 51L620 0L582 72Z" fill="#4d6f10" stroke="#4d6f10"></path><path d="M382 0L329 0L343 33Z" fill="#cfc409" stroke="#cfc409"></path><path d="M329 0L328 0L343 33Z" fill="#efd40c" stroke="#efd40c"></path><path d="M592 540L694 537L605 515Z" fill="#4d6f10" stroke="#4d6f10"></path><path d="M697 490L715 540L720 476Z" fill="#4d6f10" stroke="#4d6f10"></path><path d="M765 163L729 114L688 172Z" fill="#638010" stroke="#638010"></path><path d="M109 370L129 399L128 326Z" fill="#638010" stroke="#638010"></path><path d="M128 326L129 399L199 363Z" fill="#cfc409" stroke="#cfc409"></path><path d="M127 472L218 486L212 463Z" fill="#638010" stroke="#638010"></path><path d="M204 97L170 120L186 163Z" fill="#153c0a" stroke="#153c0a"></path><path d="M78 246L109 276L127 267Z" fill="#638010" stroke="#638010"></path><path d="M108 81L170 120L204 97Z" fill="#7b910f" stroke="#7b910f"></path><path d="M771 473L741 384L704 446Z" fill="#4d6f10" stroke="#4d6f10"></path><path d="M745 376L796 328L736 285Z" fill="#cfc409" stroke="#cfc409"></path><path d="M771 473L704 446L720 476Z" fill="#4d6f10" stroke="#4d6f10"></path><path d="M832 216L765 163L763 191Z" fill="#cfc409" stroke="#cfc409"></path><path d="M763 191L765 163L688 172Z" fill="#072c03" stroke="#072c03"></path><path d="M803 306L737 282L736 285Z" fill="#072c03" stroke="#072c03"></path><path d="M328 0L222 54L292 81Z" fill="#95a20c" stroke="#95a20c"></path><path d="M802 348L796 328L745 376Z" fill="#638010" stroke="#638010"></path><path d="M103 219L170 235L156 187Z" fill="#072c03" stroke="#072c03"></path><path d="M127 267L109 276L128 326Z" fill="#95a20c" stroke="#95a20c"></path><path d="M658 46L620 0L637 51Z" fill="#cfc409" stroke="#cfc409"></path><path d="M676 0L620 0L658 46Z" fill="#7b910f" stroke="#7b910f"></path><path d="M802 348L803 306L796 328Z" fill="#cfc409" stroke="#cfc409"></path><path d="M796 328L803 306L736 285Z" fill="#4d6f10" stroke="#4d6f10"></path><path d="M784 391L802 348L745 376Z" fill="#7b910f" stroke="#7b910f"></path><path d="M592 540L715 540L694 537Z" fill="#385e0f" stroke="#385e0f"></path><path d="M694 537L715 540L697 490Z" fill="#072c03" stroke="#072c03"></path><path d="M79 362L109 370L74 345Z" fill="#153c0a" stroke="#153c0a"></path><path d="M129 399L115 405L167 425Z" fill="#638010" stroke="#638010"></path><path d="M101 387L115 405L129 399Z" fill="#efd40c" stroke="#efd40c"></path><path d="M765 163L759 124L729 114Z" fill="#264d0d" stroke="#264d0d"></path><path d="M680 0L676 0L658 46Z" fill="#638010" stroke="#638010"></path><path d="M760 79L759 124L796 94Z" fill="#153c0a" stroke="#153c0a"></path><path d="M93 137L116 189L156 187Z" fill="#385e0f" stroke="#385e0f"></path><path d="M765 507L771 473L720 476Z" fill="#153c0a" stroke="#153c0a"></path><path d="M784 391L817 399L802 348Z" fill="#385e0f" stroke="#385e0f"></path><path d="M116 189L103 219L156 187Z" fill="#153c0a" stroke="#153c0a"></path><path d="M79 362L101 387L109 370Z" fill="#4d6f10" stroke="#4d6f10"></path><path d="M80 288L128 326L109 276Z" fill="#95a20c" stroke="#95a20c"></path><path d="M109 370L101 387L129 399Z" fill="#072c03" stroke="#072c03"></path><path d="M127 472L167 425L114 462Z" fill="#638010" stroke="#638010"></path><path d="M127 472L212 463L167 425Z" fill="#638010" stroke="#638010"></path><path d="M114 462L167 425L115 405Z" fill="#efd40c" stroke="#efd40c"></path><path d="M745 540L765 507L720 476Z" fill="#4d6f10" stroke="#4d6f10"></path><path d="M801 453L817 399L784 391Z" fill="#cfc409" stroke="#cfc409"></path><path d="M715 540L745 540L720 476Z" fill="#efd40c" stroke="#efd40c"></path><path d="M745 540L746 540L765 507Z" fill="#7b910f" stroke="#7b910f"></path><path d="M100 450L114 462L115 405Z" fill="#95a20c" stroke="#95a20c"></path><path d="M127 472L155 540L172 540Z" fill="#cfc409" stroke="#cfc409"></path><path d="M78 246L80 288L109 276Z" fill="#4d6f10" stroke="#4d6f10"></path><path d="M82 405L100 450L115 405Z" fill="#efd40c" stroke="#efd40c"></path><path d="M801 453L784 391L771 473Z" fill="#cfc409" stroke="#cfc409"></path><path d="M884 290L842 273L885 293Z" fill="#385e0f" stroke="#385e0f"></path><path d="M830 505L801 453L771 473Z" fill="#cfc409" stroke="#cfc409"></path><path d="M830 505L771 473L765 507Z" fill="#95a20c" stroke="#95a20c"></path><path d="M740 57L696 123L729 114Z" fill="#95a20c" stroke="#95a20c"></path><path d="M760 79L740 57L729 114Z" fill="#95a20c" stroke="#95a20c"></path><path d="M74 345L109 370L128 326Z" fill="#153c0a" stroke="#153c0a"></path><path d="M80 540L155 540L127 472Z" fill="#cfc409" stroke="#cfc409"></path><path d="M740 57L680 0L658 46Z" fill="#638010" stroke="#638010"></path><path d="M103 219L78 246L127 267Z" fill="#b1b30a" stroke="#b1b30a"></path><path d="M80 288L74 345L128 326Z" fill="#95a20c" stroke="#95a20c"></path><path d="M82 167L78 246L103 219Z" fill="#638010" stroke="#638010"></path><path d="M759 124L760 79L729 114Z" fill="#385e0f" stroke="#385e0f"></path><path d="M796 94L759 124L765 163Z" fill="#b1b30a" stroke="#b1b30a"></path><path d="M832 216L763 191L788 231Z" fill="#4d6f10" stroke="#4d6f10"></path><path d="M62 284L74 345L80 288Z" fill="#264d0d" stroke="#264d0d"></path><path d="M82 405L115 405L101 387Z" fill="#4d6f10" stroke="#4d6f10"></path><path d="M114 462L80 540L127 472Z" fill="#638010" stroke="#638010"></path><path d="M82 405L101 387L79 362Z" fill="#072c03" stroke="#072c03"></path><path d="M45 440L82 405L0 370Z" fill="#95a20c" stroke="#95a20c"></path><path d="M842 273L788 231L803 306Z" fill="#b1b30a" stroke="#b1b30a"></path><path d="M842 273L832 216L788 231Z" fill="#638010" stroke="#638010"></path><path d="M842 273L803 306L885 293Z" fill="#264d0d" stroke="#264d0d"></path><path d="M833 410L834 401L817 399Z" fill="#efd40c" stroke="#efd40c"></path><path d="M817 399L834 401L802 348Z" fill="#153c0a" stroke="#153c0a"></path><path d="M833 410L817 399L801 453Z" fill="#072c03" stroke="#072c03"></path><path d="M78 246L62 284L80 288Z" fill="#385e0f" stroke="#385e0f"></path><path d="M0 370L82 405L79 362Z" fill="#385e0f" stroke="#385e0f"></path><path d="M834 401L833 410L859 409Z" fill="#153c0a" stroke="#153c0a"></path><path d="M746 540L770 540L765 507Z" fill="#7b910f" stroke="#7b910f"></path><path d="M93 137L82 167L116 189Z" fill="#153c0a" stroke="#153c0a"></path><path d="M116 189L82 167L103 219Z" fill="#264d0d" stroke="#264d0d"></path><path d="M78 246L27 260L62 284Z" fill="#b1b30a" stroke="#b1b30a"></path><path d="M93 137L156 187L170 120Z" fill="#264d0d" stroke="#264d0d"></path><path d="M108 81L93 137L170 120Z" fill="#7b910f" stroke="#7b910f"></path><path d="M328 0L195 0L222 54Z" fill="#153c0a" stroke="#153c0a"></path><path d="M222 54L177 1L204 97Z" fill="#385e0f" stroke="#385e0f"></path><path d="M850 141L796 94L765 163Z" fill="#cfc409" stroke="#cfc409"></path><path d="M760 79L787 4L740 57Z" fill="#95a20c" stroke="#95a20c"></path><path d="M740 57L728 0L680 0Z" fill="#385e0f" stroke="#385e0f"></path><path d="M842 273L848 216L832 216Z" fill="#b1b30a" stroke="#b1b30a"></path><path d="M832 216L850 141L765 163Z" fill="#7b910f" stroke="#7b910f"></path><path d="M866 214L848 216L842 273Z" fill="#638010" stroke="#638010"></path><path d="M787 4L728 0L740 57Z" fill="#385e0f" stroke="#385e0f"></path><path d="M195 0L177 1L222 54Z" fill="#cfc409" stroke="#cfc409"></path><path d="M177 1L108 81L204 97Z" fill="#cfc409" stroke="#cfc409"></path><path d="M0 126L0 158L82 167Z" fill="#638010" stroke="#638010"></path><path d="M859 409L862 386L834 401Z" fill="#efd40c" stroke="#efd40c"></path><path d="M834 401L862 386L802 348Z" fill="#cfc409" stroke="#cfc409"></path><path d="M859 409L833 410L858 435Z" fill="#153c0a" stroke="#153c0a"></path><path d="M858 435L833 410L801 453Z" fill="#95a20c" stroke="#95a20c"></path><path d="M884 290L866 214L842 273Z" fill="#efd40c" stroke="#efd40c"></path><path d="M848 216L850 141L832 216Z" fill="#b1b30a" stroke="#b1b30a"></path><path d="M907 392L902 336L862 386Z" fill="#638010" stroke="#638010"></path><path d="M869 451L858 435L801 453Z" fill="#264d0d" stroke="#264d0d"></path><path d="M770 540L830 505L765 507Z" fill="#385e0f" stroke="#385e0f"></path><path d="M52 81L89 87L57 45Z" fill="#153c0a" stroke="#153c0a"></path><path d="M108 81L89 87L93 137Z" fill="#385e0f" stroke="#385e0f"></path><path d="M10 222L27 260L78 246Z" fill="#b1b30a" stroke="#b1b30a"></path><path d="M866 214L850 141L848 216Z" fill="#b1b30a" stroke="#b1b30a"></path><path d="M835 67L787 4L760 79Z" fill="#264d0d" stroke="#264d0d"></path><path d="M10 222L78 246L82 167Z" fill="#4d6f10" stroke="#4d6f10"></path><path d="M62 284L0 318L74 345Z" fill="#b1b30a" stroke="#b1b30a"></path><path d="M885 293L802 348L902 336Z" fill="#264d0d" stroke="#264d0d"></path><path d="M885 293L803 306L802 348Z" fill="#7b910f" stroke="#7b910f"></path><path d="M866 214L878 207L850 141Z" fill="#95a20c" stroke="#95a20c"></path><path d="M82 405L45 440L100 450Z" fill="#efd40c" stroke="#efd40c"></path><path d="M100 450L80 540L114 462Z" fill="#638010" stroke="#638010"></path><path d="M0 364L79 362L74 345Z" fill="#072c03" stroke="#072c03"></path><path d="M902 336L802 348L862 386Z" fill="#638010" stroke="#638010"></path><path d="M884 290L878 207L866 214Z" fill="#95a20c" stroke="#95a20c"></path><path d="M195 0L149 0L177 1Z" fill="#b1b30a" stroke="#b1b30a"></path><path d="M177 1L149 0L108 81Z" fill="#385e0f" stroke="#385e0f"></path><path d="M850 141L838 103L796 94Z" fill="#4d6f10" stroke="#4d6f10"></path><path d="M897 204L878 207L884 290Z" fill="#cfc409" stroke="#cfc409"></path><path d="M885 61L835 67L838 103Z" fill="#7b910f" stroke="#7b910f"></path><path d="M830 505L869 451L801 453Z" fill="#b1b30a" stroke="#b1b30a"></path><path d="M858 435L907 392L859 409Z" fill="#638010" stroke="#638010"></path><path d="M45 440L80 540L100 450Z" fill="#264d0d" stroke="#264d0d"></path><path d="M907 392L862 386L859 409Z" fill="#072c03" stroke="#072c03"></path><path d="M924 286L897 204L884 290Z" fill="#153c0a" stroke="#153c0a"></path><path d="M835 67L760 79L796 94Z" fill="#072c03" stroke="#072c03"></path><path d="M838 103L835 67L796 94Z" fill="#638010" stroke="#638010"></path><path d="M899 101L838 103L850 141Z" fill="#153c0a" stroke="#153c0a"></path><path d="M0 158L10 222L82 167Z" fill="#153c0a" stroke="#153c0a"></path><path d="M27 260L0 318L62 284Z" fill="#385e0f" stroke="#385e0f"></path><path d="M0 268L0 318L27 260Z" fill="#cfc409" stroke="#cfc409"></path><path d="M45 440L42 540L80 540Z" fill="#153c0a" stroke="#153c0a"></path><path d="M924 286L884 290L885 293Z" fill="#7b910f" stroke="#7b910f"></path><path d="M878 207L897 204L850 141Z" fill="#385e0f" stroke="#385e0f"></path><path d="M0 242L0 268L27 260Z" fill="#638010" stroke="#638010"></path><path d="M0 318L0 364L74 345Z" fill="#4d6f10" stroke="#4d6f10"></path><path d="M10 222L0 242L27 260Z" fill="#385e0f" stroke="#385e0f"></path><path d="M0 364L0 370L79 362Z" fill="#efd40c" stroke="#efd40c"></path><path d="M57 45L89 87L108 81Z" fill="#385e0f" stroke="#385e0f"></path><path d="M89 87L52 81L93 137Z" fill="#385e0f" stroke="#385e0f"></path><path d="M10 222L0 158L0 242Z" fill="#264d0d" stroke="#264d0d"></path><path d="M869 451L907 392L858 435Z" fill="#efd40c" stroke="#efd40c"></path><path d="M902 336L924 286L885 293Z" fill="#b1b30a" stroke="#b1b30a"></path><path d="M149 0L106 0L108 81Z" fill="#4d6f10" stroke="#4d6f10"></path><path d="M106 0L104 0L108 81Z" fill="#385e0f" stroke="#385e0f"></path><path d="M830 505L883 495L869 451Z" fill="#072c03" stroke="#072c03"></path><path d="M869 451L930 410L907 392Z" fill="#efd40c" stroke="#efd40c"></path><path d="M905 540L883 495L830 505Z" fill="#638010" stroke="#638010"></path><path d="M960 325L924 286L902 336Z" fill="#264d0d" stroke="#264d0d"></path><path d="M19 529L42 540L45 440Z" fill="#4d6f10" stroke="#4d6f10"></path><path d="M104 0L57 45L108 81Z" fill="#7b910f" stroke="#7b910f"></path><path d="M0 126L82 167L93 137Z" fill="#4d6f10" stroke="#4d6f10"></path><path d="M0 126L93 137L52 81Z" fill="#264d0d" stroke="#264d0d"></path><path d="M0 370L0 457L45 440Z" fill="#b1b30a" stroke="#b1b30a"></path><path d="M57 45L36 69L52 81Z" fill="#153c0a" stroke="#153c0a"></path><path d="M853 0L825 0L835 67Z" fill="#153c0a" stroke="#153c0a"></path><path d="M835 67L825 0L787 4Z" fill="#b1b30a" stroke="#b1b30a"></path><path d="M787 4L825 0L728 0Z" fill="#385e0f" stroke="#385e0f"></path><path d="M952 435L930 410L869 451Z" fill="#385e0f" stroke="#385e0f"></path><path d="M960 345L960 325L902 336Z" fill="#95a20c" stroke="#95a20c"></path><path d="M0 85L0 126L52 81Z" fill="#072c03" stroke="#072c03"></path><path d="M0 489L19 529L45 440Z" fill="#385e0f" stroke="#385e0f"></path><path d="M0 457L0 489L45 440Z" fill="#b1b30a" stroke="#b1b30a"></path><path d="M931 94L899 101L960 124Z" fill="#efd40c" stroke="#efd40c"></path><path d="M897 204L899 101L850 141Z" fill="#638010" stroke="#638010"></path><path d="M899 101L885 61L838 103Z" fill="#b1b30a" stroke="#b1b30a"></path><path d="M885 61L853 0L835 67Z" fill="#7b910f" stroke="#7b910f"></path><path d="M0 0L0 85L36 69Z" fill="#638010" stroke="#638010"></path><path d="M36 69L0 85L52 81Z" fill="#cfc409" stroke="#cfc409"></path><path d="M0 0L36 69L57 45Z" fill="#4d6f10" stroke="#4d6f10"></path><path d="M960 345L902 336L907 392Z" fill="#638010" stroke="#638010"></path><path d="M924 286L960 232L897 204Z" fill="#4d6f10" stroke="#4d6f10"></path><path d="M930 410L960 345L907 392Z" fill="#95a20c" stroke="#95a20c"></path><path d="M960 325L960 265L924 286Z" fill="#638010" stroke="#638010"></path><path d="M899 101L935 73L885 61Z" fill="#153c0a" stroke="#153c0a"></path><path d="M883 495L952 435L869 451Z" fill="#cfc409" stroke="#cfc409"></path><path d="M930 410L960 418L960 345Z" fill="#b1b30a" stroke="#b1b30a"></path><path d="M770 540L905 540L830 505Z" fill="#95a20c" stroke="#95a20c"></path><path d="M0 489L0 540L19 529Z" fill="#7b910f" stroke="#7b910f"></path><path d="M19 529L0 540L42 540Z" fill="#072c03" stroke="#072c03"></path><path d="M960 265L960 232L924 286Z" fill="#7b910f" stroke="#7b910f"></path><path d="M104 0L44 0L57 45Z" fill="#385e0f" stroke="#385e0f"></path><path d="M960 474L952 435L883 495Z" fill="#638010" stroke="#638010"></path><path d="M960 474L960 418L952 435Z" fill="#95a20c" stroke="#95a20c"></path><path d="M952 435L960 418L930 410Z" fill="#385e0f" stroke="#385e0f"></path><path d="M960 153L899 101L897 204Z" fill="#cfc409" stroke="#cfc409"></path><path d="M885 61L938 34L853 0Z" fill="#b1b30a" stroke="#b1b30a"></path><path d="M905 540L927 540L883 495Z" fill="#7b910f" stroke="#7b910f"></path><path d="M960 232L960 153L897 204Z" fill="#cfc409" stroke="#cfc409"></path><path d="M960 516L960 474L883 495Z" fill="#153c0a" stroke="#153c0a"></path><path d="M960 124L935 73L931 94Z" fill="#638010" stroke="#638010"></path><path d="M931 94L935 73L899 101Z" fill="#264d0d" stroke="#264d0d"></path><path d="M960 153L960 124L899 101Z" fill="#153c0a" stroke="#153c0a"></path><path d="M44 0L0 0L57 45Z" fill="#cfc409" stroke="#cfc409"></path><path d="M927 540L960 516L883 495Z" fill="#153c0a" stroke="#153c0a"></path><path d="M960 53L938 34L935 73Z" fill="#4d6f10" stroke="#4d6f10"></path><path d="M935 73L938 34L885 61Z" fill="#7b910f" stroke="#7b910f"></path><path d="M927 540L960 540L960 516Z" fill="#7b910f" stroke="#7b910f"></path><path d="M960 124L960 53L935 73Z" fill="#264d0d" stroke="#264d0d"></path><path d="M960 4L955 0L938 34Z" fill="#b1b30a" stroke="#b1b30a"></path><path d="M938 34L955 0L853 0Z" fill="#4d6f10" stroke="#4d6f10"></path><path d="M960 53L960 4L938 34Z" fill="#7b910f" stroke="#7b910f"></path><path d="M960 4L960 0L955 0Z" fill="#153c0a" stroke="#153c0a"></path></g></svg>